<?xml version="1.0" encoding="iso-8859-1"?>
<!-- Generator: Adobe Illustrator 18.0.0, SVG Export Plug-In . SVG Version: 6.00 Build 0)  -->
<!DOCTYPE svg PUBLIC "-//W3C//DTD SVG 1.1//EN" "http://www.w3.org/Graphics/SVG/1.1/DTD/svg11.dtd">
<svg version="1.1" id="Capa_1" xmlns="http://www.w3.org/2000/svg" xmlns:xlink="http://www.w3.org/1999/xlink" x="0px" y="0px"
	 viewBox="0 0 364.291 364.291" style="enable-background:new 0 0 364.291 364.291;" xml:space="preserve">
<g>
	<path style="fill:#B4D87D;" d="M340.25,182.14c0,20.29-3.55,39.76-10.07,57.8c-22.35,61.88-79.57,107.08-147.93,111.9
		c-4.01,0.29-8.05,0.43-12.13,0.43c-22.92,0-44.78-4.53-64.74-12.76c-9.96-4.1-19.44-9.12-28.35-14.95
		c-5.04-3.3-9.89-6.86-14.54-10.67C24.35,282.7,0,235.27,0,182.14c0-2.98,0.08-5.95,0.23-8.89c0.5-9.78,1.83-19.35,3.92-28.63
		c2.98-13.24,7.5-25.89,13.38-37.76c25.09-50.79,74.8-87.23,133.53-93.78c5.74-0.64,11.57-1,17.47-1.05
		c0.53-0.01,1.06-0.01,1.59-0.01c0.52,0,1.05,0,1.57,0.01c3.73,0.03,7.44,0.19,11.11,0.46c58.62,4.32,108.99,38.33,136.09,87.07
		c2.19,3.92,4.22,7.93,6.08,12.03c6.52,14.28,11.12,29.62,13.47,45.69c0.19,1.27,0.36,2.55,0.51,3.83
		C339.81,168,340.25,175.01,340.25,182.14z"/>
	<path style="fill:#A67C52;" d="M364.03,181.33l-1.2,5.65l-2.67,12.5l-3.73,17.5h-20.8c0,3.32,1.34,6.32,3.51,8.49
		s5.17,3.51,8.49,3.51h6.24V229c-1.04,4.89-5.07,8.59-10.04,9.22l-13.65,1.72l-56.05,7.05l-67.45,8.48
		c-2.23,0.28-4.45,0.42-6.64,0.42c-21.11,0-40.51-12.59-48.91-32.41l-88.64,90.41C24.35,282.7,0,235.27,0,182.14
		c0-2.98,0.08-5.95,0.23-8.89c0.5-9.78,1.83-19.35,3.92-28.63c2.98-13.24,7.5-25.89,13.38-37.76l217.6,14.62l87.06,33.23l16.76,6.4
		l17.77,6.78C362.14,169.96,365.24,175.66,364.03,181.33z"/>
	<path style="fill:#F2F2F2;" d="M201.369,125.953l3.418-18.323c2.101-11.263,9.739-20.707,20.314-25.117l43.723-18.235L247.371,86
		c-4.817,4.877-8.063,11.084-9.32,17.823l-5.224,27.999c-1.621,8.687-9.976,14.415-18.663,12.794l0,0
		C205.477,142.996,199.749,134.64,201.369,125.953z"/>
	<path style="fill:#4D4D4D;" d="M289.21,170.48h-27.01c-6.393,0-11.576-5.183-11.576-11.576v0h27.01
		C284.028,158.905,289.21,164.087,289.21,170.48L289.21,170.48z"/>
	<path style="fill:#C19165;" d="M364.03,181.33l-1.2,5.65l-2.67,12.5l-3.73,17.5h-20.8c0,3.32,1.34,6.32,3.51,8.49
		s5.17,3.51,8.49,3.51h6.24V229c-1.04,4.89-5.07,8.59-10.04,9.22l-69.7,8.77c0-15.45,3.26-30.54,9.37-44.37
		c6.11-13.83,15.07-26.4,26.5-36.8l12.19-11.11l34.53,13.18C362.14,169.96,365.24,175.66,364.03,181.33z"/>
	<path style="fill:#4D4D4D;" d="M362.83,186.98l-2.67,12.5h-10.28c-3.45,0-6.25-2.8-6.25-6.25c0-1.73,0.7-3.29,1.83-4.42
		c1.13-1.13,2.69-1.83,4.42-1.83H362.83z"/>
	<polygon style="fill:#4D4D4D;" points="137.63,273.862 127.13,296.346 127.13,106.48 137.63,106.48 	"/>
	<path style="fill:#C19165;" d="M198.882,126.239c-0.313,0.323-0.636,0.626-0.968,0.93c-18.044,17.057-46.52,16.744-64.185-0.93
		l-2.98-2.98l-13.554-13.555c17.987-17.987,47.166-17.987,65.162,0L198.882,126.239z"/>
	<path style="fill:#A67C52;" d="M195.597,131.594c-0.184,0.189-0.373,0.367-0.568,0.546c-10.584,10.005-27.286,9.821-37.646-0.546
		l-1.748-1.748l-7.95-7.95c10.55-10.55,27.664-10.55,38.22,0L195.597,131.594z"/>
	<path style="fill:#EFE373;" d="M148.13,308.615h-29v-27.5c0-8.008,6.492-14.5,14.5-14.5h0c8.008,0,14.5,6.492,14.5,14.5V308.615z"
		/>
</g>
<g>
</g>
<g>
</g>
<g>
</g>
<g>
</g>
<g>
</g>
<g>
</g>
<g>
</g>
<g>
</g>
<g>
</g>
<g>
</g>
<g>
</g>
<g>
</g>
<g>
</g>
<g>
</g>
<g>
</g>
</svg>
